<svg width="49" height="48" viewBox="0 0 49 48" fill="none" xmlns="http://www.w3.org/2000/svg">
<rect x="4.5" y="4" width="40" height="40" rx="20" fill="#FCEDC1"/>
<g clip-path="url(#clip0_221_659)">
<path d="M25.5603 20.1102L26.9753 21.5252C27.6253 22.1753 28.141 22.947 28.4928 23.7963C28.8447 24.6456 29.0258 25.5559 29.0258 26.4752C29.0258 27.3945 28.8447 28.3049 28.4928 29.1542C28.141 30.0035 27.6253 30.7752 26.9753 31.4252L26.6213 31.7782C25.3084 33.0911 23.5279 33.8286 21.6713 33.8286C19.8146 33.8286 18.0341 33.0911 16.7213 31.7782C15.4084 30.4654 14.6709 28.6848 14.6709 26.8282C14.6709 24.9716 15.4084 23.1911 16.7213 21.8782L18.1363 23.2932C17.6686 23.7568 17.2972 24.3081 17.0432 24.9156C16.7892 25.5231 16.6577 26.1748 16.6563 26.8333C16.6548 27.4917 16.7835 28.144 17.0348 28.7526C17.2861 29.3612 17.6551 29.9142 18.1207 30.3798C18.5863 30.8453 19.1393 31.2144 19.7479 31.4657C20.3565 31.717 21.0088 31.8456 21.6672 31.8442C22.3257 31.8428 22.9774 31.7113 23.5849 31.4573C24.1924 31.2033 24.7437 30.8319 25.2073 30.3642L25.5613 30.0102C26.4986 29.0726 27.0252 27.8011 27.0252 26.4752C27.0252 25.1494 26.4986 23.8779 25.5613 22.9402L24.1463 21.5252L25.5613 20.1112L25.5603 20.1102ZM32.2783 26.1212L30.8643 24.7072C31.3319 24.2437 31.7034 23.6923 31.9573 23.0848C32.2113 22.4773 32.3428 21.8256 32.3442 21.1672C32.3457 20.5087 32.217 19.8565 31.9657 19.2479C31.7144 18.6393 31.3454 18.0863 30.8798 17.6207C30.4142 17.1551 29.8612 16.7861 29.2526 16.5348C28.644 16.2834 27.9917 16.1548 27.3333 16.1563C26.6748 16.1577 26.0232 16.2892 25.4157 16.5432C24.8082 16.7971 24.2568 17.1686 23.7933 17.6362L23.4393 17.9902C22.5019 18.9279 21.9753 20.1994 21.9753 21.5252C21.9753 22.8511 22.5019 24.1226 23.4393 25.0602L24.8543 26.4752L23.4393 27.8892L22.0253 26.4752C21.3752 25.8252 20.8595 25.0535 20.5077 24.2042C20.1558 23.3549 19.9748 22.4445 19.9748 21.5252C19.9748 20.6059 20.1558 19.6956 20.5077 18.8463C20.8595 17.997 21.3752 17.2253 22.0253 16.5752L22.3793 16.2222C23.6921 14.9094 25.4726 14.1719 27.3293 14.1719C29.1859 14.1719 30.9664 14.9094 32.2793 16.2222C33.5921 17.5351 34.3296 19.3156 34.3296 21.1722C34.3296 23.0288 33.5921 24.8094 32.2793 26.1222L32.2783 26.1212Z" fill="#554B38"/>
</g>
<defs>
<clipPath id="clip0_221_659">
<rect width="24" height="24" fill="white" transform="translate(12.5 12)"/>
</clipPath>
</defs>
</svg>
