<svg width="48" height="48" viewBox="0 0 48 48" fill="none" xmlns="http://www.w3.org/2000/svg">
<rect x="4" y="4" width="40" height="40" rx="20" fill="#FCEDC1"/>
<path d="M24 14C18.477 14 14 18.477 14 24C14 28.991 17.657 33.128 22.438 33.879V26.89H19.898V24H22.438V21.797C22.438 19.291 23.93 17.907 26.215 17.907C27.309 17.907 28.453 18.102 28.453 18.102V20.562H27.193C25.95 20.562 25.563 21.333 25.563 22.124V24H28.336L27.893 26.89H25.563V33.879C30.343 33.129 34 28.99 34 24C34 18.477 29.523 14 24 14Z" fill="#554B38"/>
</svg>
