<svg width="48" height="48" viewBox="0 0 48 48" fill="none" xmlns="http://www.w3.org/2000/svg">
<rect x="4" y="4" width="40" height="40" rx="20" fill="#FCEDC1"/>
<g clip-path="url(#clip0_221_656)">
<path d="M30.663 22.8403C30.6627 22.9796 30.6072 23.1131 30.5086 23.2116C30.41 23.31 30.2763 23.3653 30.137 23.3653H28.675V24.3033H30.137C30.2078 24.3002 30.2785 24.3114 30.3448 24.3364C30.4112 24.3614 30.4718 24.3995 30.5229 24.4485C30.5741 24.4975 30.6149 24.5564 30.6427 24.6216C30.6706 24.6868 30.6849 24.7569 30.6849 24.8278C30.6849 24.8986 30.6706 24.9688 30.6427 25.034C30.6149 25.0991 30.5741 25.158 30.5229 25.207C30.4718 25.256 30.4112 25.2942 30.3448 25.3191C30.2785 25.3441 30.2078 25.3554 30.137 25.3523H28.15C28.0115 25.3512 27.8791 25.2956 27.7813 25.1975C27.6836 25.0994 27.6285 24.9667 27.628 24.8283V20.8523C27.628 20.5653 27.863 20.3273 28.153 20.3273H30.141C30.2802 20.3277 30.4136 20.3834 30.5118 20.4821C30.61 20.5808 30.6649 20.7145 30.6645 20.8538C30.6641 20.993 30.6084 21.1264 30.5097 21.2246C30.4109 21.3227 30.2772 21.3777 30.138 21.3773H28.676V22.3153H30.138C30.429 22.3153 30.664 22.5523 30.664 22.8403H30.663ZM26.565 25.3253C26.5113 25.3422 26.4553 25.3507 26.399 25.3503C26.3167 25.3521 26.2351 25.3342 26.1612 25.298C26.0873 25.2618 26.0231 25.2084 25.974 25.1423L23.938 22.3783V24.8283C23.928 24.9603 23.8685 25.0836 23.7714 25.1736C23.6744 25.2636 23.5469 25.3136 23.4145 25.3136C23.2821 25.3136 23.1546 25.2636 23.0576 25.1736C22.9605 25.0836 22.901 24.9603 22.891 24.8283V20.8523C22.8907 20.714 22.9453 20.5813 23.0428 20.4832C23.1403 20.3852 23.2727 20.3298 23.411 20.3293C23.573 20.3293 23.723 20.4153 23.823 20.5403L25.875 23.3153V20.8523C25.875 20.5653 26.11 20.3273 26.4 20.3273C26.687 20.3273 26.925 20.5653 26.925 20.8523V24.8283C26.9249 24.9384 26.89 25.0458 26.8254 25.135C26.7607 25.2242 26.6696 25.2908 26.565 25.3253V25.3253ZM21.615 25.3523C21.4764 25.3515 21.3436 25.296 21.2457 25.1979C21.1478 25.0997 21.0925 24.9669 21.092 24.8283V20.8523C21.092 20.5653 21.328 20.3273 21.617 20.3273C21.906 20.3273 22.141 20.5653 22.141 20.8523V24.8283C22.1402 24.9673 22.0845 25.1005 21.9859 25.1986C21.8874 25.2968 21.7541 25.352 21.615 25.3523V25.3523ZM20.085 25.3523H18.098C17.9592 25.3515 17.8262 25.2961 17.728 25.198C17.6297 25.0999 17.574 24.9671 17.573 24.8283V20.8523C17.5845 20.7209 17.6448 20.5987 17.7419 20.5096C17.8391 20.4205 17.9662 20.3711 18.098 20.3711C18.2298 20.3711 18.3569 20.4205 18.4541 20.5096C18.5512 20.5987 18.6115 20.7209 18.623 20.8523V24.3023H20.087C20.2262 24.3023 20.3598 24.3576 20.4582 24.456C20.5567 24.5545 20.612 24.688 20.612 24.8273C20.612 24.9665 20.5567 25.1 20.4582 25.1985C20.3598 25.297 20.2262 25.3523 20.087 25.3523H20.085ZM24 14.5723C18.487 14.5723 14 18.2153 14 22.6903C14 26.7003 17.558 30.0593 22.363 30.6973C22.688 30.7653 23.132 30.9123 23.244 31.1893C23.344 31.4393 23.31 31.8273 23.276 32.0893L23.139 32.9393C23.102 33.1893 22.939 33.9273 24.013 33.4763C25.089 33.0273 29.777 30.0783 31.877 27.6643C33.313 26.0893 34 24.4773 34 22.6903C34 18.2153 29.512 14.5723 24 14.5723V14.5723Z" fill="#554B38"/>
</g>
<defs>
<clipPath id="clip0_221_656">
<rect width="24" height="24" fill="white" transform="translate(12 12)"/>
</clipPath>
</defs>
</svg>
