<svg width="279" height="80" viewBox="0 0 279 80" fill="none" xmlns="http://www.w3.org/2000/svg">
<g clip-path="url(#clip0_24_793)">
<path d="M275.37 80H0.119625C0.0796254 79.73 -0.0303746 79.45 0.0196254 79.21C0.229625 78.16 0.629625 77.18 1.40963 76.41C2.07963 75.76 2.76963 75.13 3.47963 74.53C4.50963 73.66 5.53963 72.78 6.61963 71.98C7.67963 71.2 8.38963 70.16 8.90963 69C9.29963 68.14 9.72963 67.32 10.2596 66.55C10.6696 65.95 11.1096 65.37 11.5496 64.79C11.7896 64.47 11.7996 64.14 11.6396 63.8C11.1796 62.79 10.6296 61.9 9.62963 61.27C7.88963 60.18 6.06963 59.31 4.09963 58.75C3.53963 58.59 2.97963 58.41 2.45963 58.16C1.79963 57.85 1.71963 57.46 2.09963 56.85C2.25963 56.6 2.42963 56.37 2.56963 56.11C2.91963 55.46 2.82963 55.17 2.22963 54.74C1.85963 54.47 1.52963 54.16 1.16963 53.87C0.579625 53.4 0.529625 52.8 0.679625 52.12C0.829625 51.45 0.969625 50.78 1.11963 50.12C1.23963 49.56 1.53963 49.13 2.04963 48.85C2.37963 48.67 2.72963 48.54 3.05963 48.37C3.61963 48.09 4.16962 47.8 4.71962 47.51C5.02962 47.34 5.17963 47.06 5.07963 46.72C4.80963 45.76 4.59963 44.79 4.13963 43.89C3.86963 43.37 3.44963 43.14 2.92963 43.02C2.76963 42.98 2.59963 43.02 2.42963 43C1.92963 42.95 1.72963 42.59 1.99963 42.16C2.15963 41.9 2.40963 41.7 2.63963 41.49C3.18963 40.99 3.77963 40.53 4.12963 39.79C3.81963 39.51 3.53963 39.24 3.23963 38.99C2.79963 38.61 2.36963 38.22 1.91963 37.86C1.51963 37.53 1.57963 37.13 2.00963 36.86C3.12963 36.14 4.20963 35.38 5.30963 34.63C6.24963 33.99 6.30963 33.8 5.82963 32.79C5.10963 31.27 4.39963 29.74 3.66963 28.22C3.47963 27.82 3.42963 27.42 3.56963 27.01C3.64963 26.78 3.80963 26.58 3.94963 26.37C4.76963 25.12 5.58963 23.87 6.41963 22.62C6.68963 22.22 6.78963 21.84 6.50963 21.36C5.89963 20.29 5.36963 19.19 4.79963 18.1C4.46963 17.48 4.10963 16.87 3.75963 16.25C3.34963 15.52 2.99963 14.76 3.11963 13.88C3.23963 13.02 2.89963 12.36 2.25963 11.79C1.85963 11.43 1.48963 11.02 1.19963 10.58C0.919625 10.17 0.749625 9.63 0.959625 9.16C1.23963 8.54 1.13963 7.99 0.899625 7.42C0.759625 7.09 0.579625 6.79 0.429625 6.47C0.189625 5.98 0.189625 5.91 0.609625 5.57C0.899625 5.34 1.22963 5.15 1.54963 4.96C2.06963 4.65 2.58963 4.34 3.10963 4.05C3.39963 3.89 3.41963 3.68 3.27963 3.43C3.18963 3.27 3.06963 3.12 2.93963 2.99C2.63963 2.67 2.30963 2.38 2.01963 2.06C1.45963 1.49 0.939625 0.9 1.11963 0H277.74C277.67 0.51 277.71 1.05 277.26 1.43C277.2 1.48 277.17 1.57 277.13 1.64C276.96 1.94 276.83 2.27 276.62 2.55C276.05 3.32 275.45 4.06 274.87 4.81C274.37 5.45 274.34 5.94 274.74 6.63C274.91 6.92 275.06 7.22 275.24 7.49C275.86 8.4 276.52 9.28 277.11 10.2C277.44 10.71 277.81 11.21 277.72 11.92C277.59 12.9 277.25 13.8 276.98 14.73C276.45 16.58 276.29 18.41 277.38 20.14C277.42 20.21 277.47 20.28 277.49 20.36C277.54 20.54 277.61 20.72 277.61 20.9C277.58 21.79 277.65 22.71 277.45 23.57C277.16 24.8 277.19 26.04 277.01 27.27C276.9 28 276.74 28.7 276.29 29.3C275.97 29.73 275.62 30.15 275.33 30.6C274.73 31.53 274.31 32.54 273.98 33.6C273.45 35.29 272.84 36.95 272.27 38.62C272.03 39.33 272.06 40.03 272.41 40.73C272.78 41.46 273.37 41.99 273.92 42.53C274.46 43.06 275.17 43.42 275.81 43.83C276.26 44.12 276.74 44.37 277.2 44.66C277.67 44.96 277.86 45.38 277.7 45.94C277.65 46.12 277.62 46.31 277.62 46.49C277.66 49.4 277.7 52.31 277.75 55.23C277.75 55.73 277.84 56.22 277.89 56.71C277.97 57.53 278.07 58.36 278.11 59.18C278.15 60.16 278.11 61.14 278.13 62.12C278.15 62.94 278 63.73 277.85 64.52C277.74 65.09 277.66 65.67 277.63 66.24C277.6 67.2 277.65 68.16 277.61 69.11C277.59 69.77 277.5 70.41 277.23 71.04C276.69 72.3 276.22 73.59 275.76 74.88C275.5 75.63 275.43 76.4 275.57 77.21C275.67 77.79 275.66 78.42 275.54 79.01C275.48 79.32 275.36 79.63 275.36 79.97L275.37 80Z" fill="#F0EBDF"/>
</g>
<defs>
<clipPath id="clip0_24_793">
<rect width="278.13" height="80" fill="white"/>
</clipPath>
</defs>
</svg>
