<svg width="19" height="18" viewBox="0 0 19 18" fill="none" xmlns="http://www.w3.org/2000/svg">
<g clip-path="url(#clip0_287_1576)">
<path d="M5.70996 7.49995H15.46C15.6589 7.49995 15.8496 7.57896 15.9903 7.71962C16.1309 7.86027 16.21 8.05103 16.21 8.24995V15.7499C16.21 15.9489 16.1309 16.1396 15.9903 16.2803C15.8496 16.4209 15.6589 16.4999 15.46 16.4999H3.45996C3.26105 16.4999 3.07028 16.4209 2.92963 16.2803C2.78898 16.1396 2.70996 15.9489 2.70996 15.7499V8.24995C2.70996 8.05103 2.78898 7.86027 2.92963 7.71962C3.07028 7.57896 3.26105 7.49995 3.45996 7.49995H4.20996V6.74995C4.20953 5.56697 4.60865 4.41853 5.3426 3.49077C6.07656 2.56302 7.10234 1.91033 8.25366 1.63852C9.40498 1.3667 10.6144 1.49169 11.6858 1.99323C12.7572 2.49476 13.6278 3.34344 14.1565 4.4017L12.8147 5.0722C12.4371 4.31621 11.8152 3.70993 11.0498 3.35166C10.2845 2.99338 9.42056 2.90411 8.59812 3.09833C7.77569 3.29254 7.04296 3.75885 6.51873 4.42165C5.9945 5.08445 5.70951 5.90489 5.70996 6.74995V7.49995ZM4.20996 8.99995V14.9999H14.71V8.99995H4.20996ZM7.95996 11.2499H10.96V12.7499H7.95996V11.2499Z" fill="#46361A"/>
</g>
<defs>
<clipPath id="clip0_287_1576">
<rect width="18" height="18" fill="white" transform="translate(0.459961)"/>
</clipPath>
</defs>
</svg>
